<?xml version="1.0" encoding="UTF-8"?>
<!DOCTYPE svg PUBLIC "-//W3C//DTD SVG 1.1//EN" "http://www.w3.org/Graphics/SVG/1.1/DTD/svg11.dtd">
<!-- Creator: CorelDRAW -->
<svg xmlns="http://www.w3.org/2000/svg" xml:space="preserve" width="210mm" height="297mm" version="1.1" style="shape-rendering:geometricPrecision; text-rendering:geometricPrecision; image-rendering:optimizeQuality; fill-rule:evenodd; clip-rule:evenodd"
viewBox="0 0 21000 29700"
 xmlns:xlink="http://www.w3.org/1999/xlink"
 xmlns:xodm="http://www.corel.com/coreldraw/odm/2003">
 <defs>
  <style type="text/css">
   <![CDATA[
    .fil0 {fill:#E6E6E6}
   ]]>
  </style>
 </defs>
 <g id="Camada_x0020_1">
  <metadata id="CorelCorpID_0Corel-Layer"/>
  <path class="fil0" d="M2386.73 21558.74l17112.65 0 0 -20715.18 -900.38 0 0 19814.46 -16212.27 0 0 900.72zm15311.55 -21615.9l-16211.93 0 0 19814.46 16211.93 0 0 -19814.46zm-900.72 900.72l-14410.83 0 0 18013.36 14410.83 0 0 -18013.36zm-1801.44 14410.48l-10807.95 0 0 900.72 10807.95 0 0 -900.72zm0 -2701.81l-10807.95 0 0 900.72 10807.95 0 0 -900.72zm0 -2702.16l-10807.95 0 0 900.72 10807.95 0 0 -900.72zm-6617.87 -3479.31l853.74 270.28c-130.71,476.57 -348.58,830.26 -652.9,1061.05 -304.33,231.48 -690.69,346.88 -1159.09,346.88 -579.03,0 -1054.58,-198.12 -1427.67,-593.67 -372.75,-395.55 -559.29,-936.8 -559.29,-1623.07 0,-726.09 187.22,-1289.8 562.01,-1691.48 374.79,-401.68 867.36,-602.52 1478.74,-602.52 533.07,0 966.41,157.6 1299.67,472.82 199.14,186.55 347.56,454.79 446.62,803.36l-871.79 207.99c-51.4,-226.03 -159.31,-404.4 -322.36,-535.12 -164.08,-131.4 -362.88,-196.41 -597.08,-196.41 -323.39,0 -585.5,116.08 -787.02,347.55 -200.84,232.5 -301.6,607.97 -301.6,1127.78 0,552.14 99.06,944.63 298.19,1178.15 198.12,234.2 455.81,351.3 772.73,351.3 234.2,0 436.06,-73.87 604.22,-223.31 168.51,-148.76 290.03,-382.62 362.88,-701.58zm2722.58 1603.32l-1559.07 -4360.97 954.85 0 1104.28 3228.09 1068.2 -3228.09 933.74 0 -1561.79 4360.97 -940.21 0z"/>
 </g>
</svg>
